<?xml version="1.0" encoding="UTF-8"?>
<svg width="20px" height="16px" viewBox="0 0 20 16" version="1.1" xmlns="http://www.w3.org/2000/svg" xmlns:xlink="http://www.w3.org/1999/xlink">
    <!-- Generator: Sketch 52.1 (67048) - http://www.bohemiancoding.com/sketch -->
    <title>icon_skin</title>
    <desc>Created with Sketch.</desc>
    <g id="00切图" stroke="none" stroke-width="1" fill="none" fill-rule="evenodd">
        <g id="切图" transform="translate(-222.000000, -499.000000)" fill="#AA753F">
            <g id="icon_skin" transform="translate(222.000000, 499.000000)">
                <g>
                    <path d="M16,14 C16,14.8284271 15.3284271,15.5 14.5,15.5 L13.8959338,15.5 C13.6197914,15.5 13.3959338,15.2761424 13.3959338,15 C13.3959338,14.7238576 13.6197914,14.5 13.8959338,14.5 L14.5,14.5 C14.7761424,14.5 15,14.2761424 15,14 L15,6 C15,5.55454757 15.538571,5.33146418 15.8535534,5.64644661 L16.6464466,6.43933983 C16.8417088,6.63460197 17.1582912,6.63460197 17.3535534,6.43933983 L18.479712,5.31318119 C18.6669102,5.12598304 18.6757458,4.82531364 18.4998633,4.62744588 L15.4246386,1.16781808 C15.3297549,1.0610739 15.1937528,1 15.0509339,1 L12.7624813,1 C12.042496,1.98707644 11.1110061,2.5 10,2.5 C9.50321671,2.5 9.0378166,2.39689922 8.60946797,2.19046297 C8.08837483,1.93932988 7.63114949,1.54006322 7.23746398,1 L4.94906606,1 C4.80624716,1 4.67024512,1.0610739 4.5753614,1.16781808 L1.5001367,4.62744588 C1.32425424,4.82531364 1.33308982,5.12598304 1.52028797,5.31318119 L2.64644661,6.43933983 C2.84170876,6.63460197 3.15829124,6.63460197 3.35355339,6.43933983 L4.14644661,5.64644661 C4.46142904,5.33146418 5,5.55454757 5,6 L5,14 C5,14.2761424 5.22385763,14.5 5.5,14.5 L11.8954455,14.5 C12.1715879,14.5 12.3954455,14.7238576 12.3954455,15 C12.3954455,15.2761424 12.1715879,15.5 11.8954455,15.5 L5.5,15.5 C4.67157288,15.5 4,14.8284271 4,14 L4,7.20387542 C3.41104342,7.73156291 2.50531319,7.71241997 1.93933983,7.14644661 L0.813181186,6.02028797 C0.251586754,5.45869353 0.22508001,4.55668533 0.752727379,3.96308204 L3.82795209,0.503454242 C4.11260324,0.183221696 4.52060934,-2.48785367e-14 4.94906606,-2.75404699e-14 L7.5,-2.75404699e-14 C7.6690776,-2.75404699e-14 7.82670212,0.085448483 7.91897547,0.227127221 C8.25182237,0.738188407 8.62686233,1.08877319 9.04361531,1.2896211 C9.33447265,1.42979546 9.65137811,1.5 10,1.5 C10.8374632,1.5 11.517926,1.09172234 12.0810245,0.227127221 C12.1732979,0.085448483 12.3309224,-2.75404699e-14 12.5,-2.75404699e-14 L15.0509339,-2.75404699e-14 C15.4793907,-2.48785367e-14 15.8873968,0.183221696 16.1720479,0.503454242 L19.2472726,3.96308204 C19.77492,4.55668533 19.7484132,5.45869353 19.1868188,6.02028797 L18.0606602,7.14644661 C17.4946868,7.71241997 16.5889566,7.73156291 16,7.20387542 L16,14 Z" id="Path-3" fill-rule="nonzero"></path>
                    <path d="M10.376896,6.55521576 C10.3464012,6.28076235 10.5441687,6.03355296 10.8186221,6.00305813 C11.0930755,5.97256331 11.3402849,6.17033082 11.3707798,6.44478424 L11.8707798,10.9447842 C11.8837712,11.0617068 11.8551191,11.179466 11.789863,11.2773501 L10.789863,12.7773501 C10.591952,13.0742166 10.1557238,13.0742166 9.95781275,12.7773501 L8.95781275,11.2773501 C8.89578217,11.1843042 8.86673389,11.0731496 8.87531065,10.9616518 L9.37531065,4.46165175 C9.3964898,4.18632276 9.63685715,3.9802936 9.91218614,4.00147276 C10.1875151,4.02265191 10.3935443,4.26301926 10.3723651,4.53834825 L9.88560274,10.8662594 L10.3738379,11.5986122 L10.8567826,10.8741951 L10.376896,6.55521576 Z" id="Path-2" fill-rule="nonzero"></path>
                </g>
            </g>
        </g>
    </g>
</svg>