<?xml version="1.0" standalone="no"?>
<svg class="icon" viewBox="0 0 1024 1024" version="1.1" xmlns="http://www.w3.org/2000/svg"
     width="200" height="200">
  <path
      d="M512 202.625c-170.859375 0-309.375 138.515625-309.375 309.375 0 170.8734375 138.515625 309.375 309.375 309.375s309.375-138.515625 309.375-309.375C821.375 341.1265625 682.859375 202.625 512 202.625zM701.028125 423.1109375L488.9375 630.8140625c-1.06875 1.771875-2.3625 3.571875-4.10625 5.315625l-9.9421875 9.9421875c-5.4984375 5.4984375-11.9671875 7.93125-14.4421875 5.45625l-101.025-105.721875c-2.475-2.475-0.0421875-8.9296875 5.45625-14.4140625l9.9421875-9.95625c5.484375-5.4984375 11.953125-7.93125 14.428125-5.45625l75.7265625 79.228125 206.2265625-201.9515625c5.484375-5.4984375 14.3859375-5.4984375 19.884375 0l9.9421875 9.9421875C706.5265625 408.7109375 706.5265625 417.6125 701.028125 423.1109375z"
      fill="#008236"
  />
</svg>
