<?xml version="1.0" standalone="no"?><!DOCTYPE svg PUBLIC "-//W3C//DTD SVG 1.1//EN" "http://www.w3.org/Graphics/SVG/1.1/DTD/svg11.dtd"><svg t="1573806940701" class="icon" viewBox="0 0 1024 1024" version="1.1" xmlns="http://www.w3.org/2000/svg" p-id="2025" xmlns:xlink="http://www.w3.org/1999/xlink" width="200" height="200"><defs><style type="text/css"></style></defs><path d="M472.746667 14.805333h117.12v585.813334H472.746667V14.762667z m328.021333 140.629334l-81.92 82.048c93.610667 64.341333 163.84 175.701333 163.84 304.469333 0 193.322667-158.08 351.445333-351.402667 351.445333-193.237333 0-351.445333-158.122667-351.445333-351.445333a347.093333 347.093333 0 0 1 169.898667-298.666667l-87.893334-87.850666C144.64 243.328 62.72 383.829333 62.72 541.994667c0 257.834667 210.901333 468.608 468.565333 468.608 257.706667 0 468.650667-210.773333 468.650667-468.650667 0-158.122667-82.048-298.666667-199.168-386.517333z" p-id="2026"></path></svg>