<?xml version="1.0" encoding="UTF-8"?>
<svg width="20px" height="20px" viewBox="0 0 20 20" version="1.1" xmlns="http://www.w3.org/2000/svg" xmlns:xlink="http://www.w3.org/1999/xlink">
    <!-- Generator: Sketch 52.1 (67048) - http://www.bohemiancoding.com/sketch -->
    <title>icon_info_fill</title>
    <desc>Created with Sketch.</desc>
    <g id="Page-1" stroke="none" stroke-width="1" fill="none" fill-rule="evenodd">
        <g id="Artboard" transform="translate(-364.000000, -50.000000)" fill="currentColor">
            <g id="icon_info_fill" transform="translate(368.000000, 54.000000)">
                <path d="M6,12 C2.6862915,12 0,9.3137085 0,6 C0,2.6862915 2.6862915,0 6,0 C9.3137085,0 12,2.6862915 12,6 C12,9.3137085 9.3137085,12 6,12 Z M5.83282471,4.95 C5.66713928,4.95 5.53282471,5.08431458 5.53282471,5.25 L5.53282471,8.64705882 C5.53282471,8.81274425 5.66713928,8.94705882 5.83282471,8.94705882 L6.20782471,8.94705882 C6.37351013,8.94705882 6.50782471,8.81274425 6.50782471,8.64705882 L6.50782471,5.25 C6.50782471,5.08431458 6.37351013,4.95 6.20782471,4.95 L5.83282471,4.95 Z M6.01016235,4.05 C6.37148958,4.05 6.68516235,3.79168124 6.68516235,3.44117647 C6.68516235,3.0906717 6.37148958,2.83235294 6.01016235,2.83235294 C5.64883513,2.83235294 5.33516235,3.0906717 5.33516235,3.44117647 C5.33516235,3.79168124 5.64883513,4.05 6.01016235,4.05 Z" id="Combined-Shape"></path>
            </g>
        </g>
    </g>
</svg>
